<svg width="85" height="84" viewBox="0 0 85 84" fill="none" xmlns="http://www.w3.org/2000/svg">
<path d="M69.338 33.4669C66.7241 29.3715 63.2079 25.9283 59.0585 23.4009C62.415 22.7009 63.1045 22.1339 63.465 21.6509C63.5885 21.4944 63.6789 21.3144 63.7306 21.1219C63.7824 20.9293 63.7944 20.7283 63.766 20.5309C63.4615 18.4554 60.581 17.6119 53.819 17.6119C50.844 17.6119 47.9005 17.7904 46.2275 17.9164L46.875 8.48742C46.8863 8.3291 46.8657 8.17013 46.8147 8.01986C46.7636 7.86959 46.6829 7.73106 46.5775 7.61242C46.4718 7.49335 46.3434 7.39668 46.1997 7.32814C46.056 7.25961 45.9 7.2206 45.741 7.21342L41.233 6.99992C41.0767 6.99143 40.9202 7.01386 40.7726 7.06594C40.6249 7.11801 40.489 7.19871 40.3726 7.3034C40.2562 7.4081 40.1616 7.53473 40.0943 7.67604C40.0269 7.81736 39.988 7.97058 39.98 8.12692L39.413 18.0634C36.9957 17.9262 34.5751 17.855 32.154 17.8499C24.013 17.8499 22.375 18.8999 21.815 20.0444C21.7127 20.2487 21.6595 20.474 21.6595 20.7024C21.6595 20.9309 21.7127 21.1562 21.815 21.3604C22.0915 21.9204 22.6655 22.5469 25.8085 23.4919C21.1775 26.3401 17.3537 30.3274 14.7018 35.0736C12.05 39.8197 10.6586 45.1662 10.6605 50.6029C10.5259 54.4356 11.3141 58.2444 12.9586 61.7089C14.6032 65.1734 17.0559 68.1921 20.1105 70.5109C26.6717 75.0463 34.5304 77.3239 42.5 76.9999C50.4751 77.3211 58.338 75.0372 64.9 70.4934C67.9545 68.1746 70.4073 65.1559 72.0518 61.6914C73.6964 58.2269 74.4845 54.4181 74.35 50.5854C74.3497 44.5175 72.6104 38.5768 69.338 33.4669ZM43.039 24.6189C42.8356 24.471 42.5905 24.3913 42.339 24.3913C42.0875 24.3913 41.8424 24.471 41.639 24.6189C37.8515 27.3711 33.9176 29.9158 29.8545 32.2419C31.2413 29.6581 32.7976 27.1688 34.513 24.7904C34.6295 24.6268 34.7026 24.4363 34.7257 24.2367C34.7487 24.0372 34.7208 23.835 34.6446 23.6492C34.5685 23.4633 34.4465 23.2997 34.29 23.1737C34.1336 23.0477 33.9478 22.9633 33.75 22.9284C30.8126 22.3795 27.9133 21.6429 25.07 20.7234C27.4037 20.3178 29.7725 20.1501 32.14 20.2229C36.3085 20.2229 40.393 20.5204 40.435 20.5239C40.5928 20.5361 40.7515 20.5167 40.9018 20.4669C41.052 20.417 41.1908 20.3376 41.31 20.2334C41.5484 20.0205 41.6941 19.7228 41.716 19.4039L42.297 9.44992L44.397 9.55142L43.7495 19.1449C43.7362 19.3173 43.7606 19.4905 43.821 19.6525C43.8815 19.8145 43.9765 19.9614 44.0995 20.0829C44.2234 20.2037 44.3721 20.296 44.5353 20.3535C44.6985 20.4109 44.8723 20.432 45.0445 20.4154C45.0865 20.4154 49.486 20.0094 53.812 20.0094C56.0559 19.9201 58.3021 20.1153 60.497 20.5904C57.7077 21.2876 54.8761 21.8032 52.02 22.1339C51.815 22.158 51.6198 22.2349 51.4535 22.3572C51.2873 22.4795 51.1557 22.6429 51.0717 22.8314C50.9876 23.0199 50.9541 23.227 50.9743 23.4324C50.9945 23.6378 51.0678 23.8344 51.187 24.0029C53.1124 26.5765 54.674 29.4031 55.828 32.4029C51.3027 30.2659 47.016 27.6567 43.039 24.6189Z" fill="#EA7727"/>
</svg>
