<svg width="85" height="84" viewBox="0 0 85 84" fill="none" xmlns="http://www.w3.org/2000/svg">
<path d="M28.5 12.25C28.5 10.8576 29.0531 9.52226 30.0377 8.53769C31.0223 7.55312 32.3576 7 33.75 7H51.25C52.6424 7 53.9777 7.55312 54.9623 8.53769C55.9469 9.52226 56.5 10.8576 56.5 12.25V15.75C56.5 17.1424 55.9469 18.4777 54.9623 19.4623C53.9777 20.4469 52.6424 21 51.25 21H33.75C32.3576 21 31.0223 20.4469 30.0377 19.4623C29.0531 18.4777 28.5 17.1424 28.5 15.75V12.25Z" fill="#EA7727"/>
<path fill-rule="evenodd" clip-rule="evenodd" d="M23.25 14.1295C18.847 14.3745 16.068 15.0745 14.0765 17.0695C11 20.146 11 25.095 11 34.993V55.993C11 65.8945 11 70.8435 14.0765 73.92C17.1495 76.993 22.102 76.993 32 76.993H53C62.898 76.993 67.8505 76.993 70.9235 73.92C74 70.84 74 65.8945 74 55.993V34.993C74 25.095 74 20.146 70.9235 17.0695C68.932 15.0745 66.153 14.3745 61.75 14.1295V15.75C61.75 18.5348 60.6438 21.2055 58.6746 23.1746C56.7055 25.1438 54.0348 26.25 51.25 26.25H33.75C30.9652 26.25 28.2945 25.1438 26.3254 23.1746C24.3562 21.2055 23.25 18.5348 23.25 15.75V14.1295ZM22.375 36.75C22.375 36.0538 22.6516 35.3861 23.1438 34.8939C23.6361 34.4016 24.3038 34.125 25 34.125H60C60.6962 34.125 61.3639 34.4016 61.8562 34.8939C62.3484 35.3861 62.625 36.0538 62.625 36.75C62.625 37.4462 62.3484 38.1139 61.8562 38.6062C61.3639 39.0985 60.6962 39.375 60 39.375H25C24.3038 39.375 23.6361 39.0985 23.1438 38.6062C22.6516 38.1139 22.375 37.4462 22.375 36.75ZM25.875 49C25.875 48.3038 26.1516 47.6361 26.6438 47.1439C27.1361 46.6516 27.8038 46.375 28.5 46.375H56.5C57.1962 46.375 57.8639 46.6516 58.3562 47.1439C58.8484 47.6361 59.125 48.3038 59.125 49C59.125 49.6962 58.8484 50.3639 58.3562 50.8562C57.8639 51.3485 57.1962 51.625 56.5 51.625H28.5C27.8038 51.625 27.1361 51.3485 26.6438 50.8562C26.1516 50.3639 25.875 49.6962 25.875 49ZM29.375 61.25C29.375 60.5538 29.6516 59.8861 30.1438 59.3939C30.6361 58.9016 31.3038 58.625 32 58.625H53C53.6962 58.625 54.3639 58.9016 54.8562 59.3939C55.3484 59.8861 55.625 60.5538 55.625 61.25C55.625 61.9462 55.3484 62.6139 54.8562 63.1062C54.3639 63.5985 53.6962 63.875 53 63.875H32C31.3038 63.875 30.6361 63.5985 30.1438 63.1062C29.6516 62.6139 29.375 61.9462 29.375 61.25Z" fill="#EA7727"/>
</svg>
