<svg width="25" height="25" viewBox="0 0 25 25" fill="none" xmlns="http://www.w3.org/2000/svg">
<path d="M12.54 2.50005C7.08005 2.50005 2.63005 6.95005 2.63005 12.4101C2.63005 14.1601 3.09005 15.8601 3.95005 17.3601L2.55005 22.5001L7.80005 21.1201C9.25005 21.9101 10.88 22.3301 12.54 22.3301C18 22.3301 22.4501 17.8801 22.4501 12.4201C22.4501 9.77005 21.42 7.28005 19.55 5.41005C18.6331 4.48416 17.5411 3.75002 16.3376 3.25042C15.134 2.75081 13.8431 2.49574 12.54 2.50005ZM12.55 4.17005C14.75 4.17005 16.81 5.03005 18.37 6.59005C19.1354 7.35557 19.7423 8.26457 20.1558 9.26497C20.5694 10.2654 20.7815 11.3375 20.7801 12.4201C20.7801 16.9601 17.08 20.6501 12.54 20.6501C11.06 20.6501 9.61005 20.2601 8.35005 19.5001L8.05005 19.3301L4.93005 20.1501L5.76005 17.1101L5.56005 16.7901C4.7346 15.4785 4.29772 13.9598 4.30005 12.4101C4.31005 7.87005 8.00005 4.17005 12.55 4.17005ZM9.03005 7.83005C8.87005 7.83005 8.60005 7.89005 8.37005 8.14005C8.15005 8.39005 7.50005 9.00005 7.50005 10.2101C7.50005 11.4301 8.39005 12.6001 8.50005 12.7701C8.64005 12.9401 10.26 15.4401 12.75 16.5001C13.34 16.7701 13.8 16.9201 14.16 17.0301C14.75 17.2201 15.29 17.1901 15.72 17.1301C16.2 17.0601 17.18 16.5301 17.39 15.9501C17.6 15.3701 17.6 14.8801 17.54 14.7701C17.47 14.6701 17.31 14.6101 17.06 14.5001C16.81 14.3601 15.59 13.7601 15.37 13.6801C15.14 13.6001 15 13.5601 14.81 13.8001C14.65 14.0501 14.17 14.6101 14.03 14.7701C13.88 14.9401 13.74 14.9601 13.5 14.8401C13.24 14.7101 12.44 14.4501 11.5 13.6101C10.76 12.9501 10.27 12.1401 10.12 11.8901C10 11.6501 10.11 11.5001 10.23 11.3901C10.34 11.2801 10.5 11.1001 10.6 10.9501C10.73 10.8101 10.77 10.7001 10.85 10.5401C10.93 10.3701 10.89 10.2301 10.83 10.1101C10.77 10.0001 10.27 8.76005 10.06 8.27005C9.86005 7.79005 9.66005 7.85005 9.50005 7.84005C9.36005 7.84005 9.20005 7.83005 9.03005 7.83005Z" fill="white"/>
</svg>
