<svg width="25" height="25" viewBox="0 0 25 25" fill="none" xmlns="http://www.w3.org/2000/svg">
<mask id="path-1-inside-1_77_286" fill="white">
<path d="M12.501 9.5C11.7054 9.5 10.9423 9.81607 10.3797 10.3787C9.81707 10.9413 9.501 11.7044 9.501 12.5C9.501 13.2956 9.81707 14.0587 10.3797 14.6213C10.9423 15.1839 11.7054 15.5 12.501 15.5C13.2966 15.5 14.0597 15.1839 14.6223 14.6213C15.1849 14.0587 15.501 13.2956 15.501 12.5C15.501 11.7044 15.1849 10.9413 14.6223 10.3787C14.0597 9.81607 13.2966 9.5 12.501 9.5ZM12.501 7.5C13.8271 7.5 15.0989 8.02678 16.0365 8.96447C16.9742 9.90215 17.501 11.1739 17.501 12.5C17.501 13.8261 16.9742 15.0979 16.0365 16.0355C15.0989 16.9732 13.8271 17.5 12.501 17.5C11.1749 17.5 9.90315 16.9732 8.96547 16.0355C8.02778 15.0979 7.501 13.8261 7.501 12.5C7.501 11.1739 8.02778 9.90215 8.96547 8.96447C9.90315 8.02678 11.1749 7.5 12.501 7.5ZM19.001 7.25C19.001 7.58152 18.8693 7.89946 18.6349 8.13388C18.4005 8.3683 18.0825 8.5 17.751 8.5C17.4195 8.5 17.1015 8.3683 16.8671 8.13388C16.6327 7.89946 16.501 7.58152 16.501 7.25C16.501 6.91848 16.6327 6.60054 16.8671 6.36612C17.1015 6.1317 17.4195 6 17.751 6C18.0825 6 18.4005 6.1317 18.6349 6.36612C18.8693 6.60054 19.001 6.91848 19.001 7.25ZM12.501 4.5C10.027 4.5 9.623 4.507 8.472 4.558C7.688 4.595 7.162 4.7 6.674 4.89C6.26583 5.04037 5.89672 5.28063 5.594 5.593C5.28127 5.89562 5.04066 6.26474 4.89 6.673C4.7 7.163 4.595 7.688 4.559 8.471C4.507 9.575 4.5 9.961 4.5 12.5C4.5 14.975 4.507 15.378 4.558 16.529C4.595 17.312 4.7 17.839 4.889 18.326C5.059 18.761 5.259 19.074 5.591 19.406C5.928 19.742 6.241 19.943 6.671 20.109C7.165 20.3 7.691 20.406 8.471 20.442C9.575 20.494 9.961 20.5 12.5 20.5C14.975 20.5 15.378 20.493 16.529 20.442C17.311 20.405 17.837 20.3 18.326 20.111C18.7342 19.9606 19.1033 19.7204 19.406 19.408C19.743 19.072 19.944 18.759 20.11 18.328C20.3 17.836 20.406 17.31 20.442 16.528C20.494 15.425 20.5 15.038 20.5 12.5C20.5 10.026 20.493 9.622 20.442 8.471C20.405 7.689 20.299 7.161 20.11 6.673C19.9596 6.26483 19.7194 5.89572 19.407 5.593C19.1044 5.28027 18.7353 5.03966 18.327 4.889C17.837 4.699 17.311 4.594 16.529 4.558C15.426 4.506 15.04 4.5 12.5 4.5M12.5 2.5C15.217 2.5 15.556 2.51 16.623 2.56C17.687 2.61 18.413 2.777 19.05 3.025C19.71 3.279 20.266 3.623 20.822 4.178C21.3307 4.67773 21.7242 5.28247 21.975 5.95C22.222 6.587 22.39 7.313 22.44 8.378C22.487 9.444 22.5 9.783 22.5 12.5C22.5 15.217 22.49 15.556 22.44 16.622C22.39 17.688 22.222 18.412 21.975 19.05C21.7242 19.7175 21.3307 20.3223 20.822 20.822C20.3223 21.3307 19.7175 21.7242 19.05 21.975C18.413 22.222 17.687 22.39 16.623 22.44C15.556 22.487 15.217 22.5 12.5 22.5C9.783 22.5 9.444 22.49 8.377 22.44C7.313 22.39 6.588 22.222 5.95 21.975C5.28247 21.7242 4.67773 21.3307 4.178 20.822C3.66931 20.3223 3.27582 19.7175 3.025 19.05C2.777 18.413 2.61 17.687 2.56 16.622C2.512 15.556 2.5 15.217 2.5 12.5C2.5 9.783 2.51 9.444 2.56 8.378C2.61 7.312 2.777 6.588 3.025 5.95C3.27582 5.28247 3.66931 4.67773 4.178 4.178C4.67773 3.66931 5.28247 3.27582 5.95 3.025C6.587 2.777 7.312 2.61 8.377 2.56C9.445 2.513 9.784 2.5 12.501 2.5"/>
</mask>
<path d="M12.501 9.5C11.7054 9.5 10.9423 9.81607 10.3797 10.3787C9.81707 10.9413 9.501 11.7044 9.501 12.5C9.501 13.2956 9.81707 14.0587 10.3797 14.6213C10.9423 15.1839 11.7054 15.5 12.501 15.5C13.2966 15.5 14.0597 15.1839 14.6223 14.6213C15.1849 14.0587 15.501 13.2956 15.501 12.5C15.501 11.7044 15.1849 10.9413 14.6223 10.3787C14.0597 9.81607 13.2966 9.5 12.501 9.5ZM12.501 7.5C13.8271 7.5 15.0989 8.02678 16.0365 8.96447C16.9742 9.90215 17.501 11.1739 17.501 12.5C17.501 13.8261 16.9742 15.0979 16.0365 16.0355C15.0989 16.9732 13.8271 17.5 12.501 17.5C11.1749 17.5 9.90315 16.9732 8.96547 16.0355C8.02778 15.0979 7.501 13.8261 7.501 12.5C7.501 11.1739 8.02778 9.90215 8.96547 8.96447C9.90315 8.02678 11.1749 7.5 12.501 7.5ZM19.001 7.25C19.001 7.58152 18.8693 7.89946 18.6349 8.13388C18.4005 8.3683 18.0825 8.5 17.751 8.5C17.4195 8.5 17.1015 8.3683 16.8671 8.13388C16.6327 7.89946 16.501 7.58152 16.501 7.25C16.501 6.91848 16.6327 6.60054 16.8671 6.36612C17.1015 6.1317 17.4195 6 17.751 6C18.0825 6 18.4005 6.1317 18.6349 6.36612C18.8693 6.60054 19.001 6.91848 19.001 7.25ZM12.501 4.5C10.027 4.5 9.623 4.507 8.472 4.558C7.688 4.595 7.162 4.7 6.674 4.89C6.26583 5.04037 5.89672 5.28063 5.594 5.593C5.28127 5.89562 5.04066 6.26474 4.89 6.673C4.7 7.163 4.595 7.688 4.559 8.471C4.507 9.575 4.5 9.961 4.5 12.5C4.5 14.975 4.507 15.378 4.558 16.529C4.595 17.312 4.7 17.839 4.889 18.326C5.059 18.761 5.259 19.074 5.591 19.406C5.928 19.742 6.241 19.943 6.671 20.109C7.165 20.3 7.691 20.406 8.471 20.442C9.575 20.494 9.961 20.5 12.5 20.5C14.975 20.5 15.378 20.493 16.529 20.442C17.311 20.405 17.837 20.3 18.326 20.111C18.7342 19.9606 19.1033 19.7204 19.406 19.408C19.743 19.072 19.944 18.759 20.11 18.328C20.3 17.836 20.406 17.31 20.442 16.528C20.494 15.425 20.5 15.038 20.5 12.5C20.5 10.026 20.493 9.622 20.442 8.471C20.405 7.689 20.299 7.161 20.11 6.673C19.9596 6.26483 19.7194 5.89572 19.407 5.593C19.1044 5.28027 18.7353 5.03966 18.327 4.889C17.837 4.699 17.311 4.594 16.529 4.558C15.426 4.506 15.04 4.5 12.5 4.5M12.5 2.5C15.217 2.5 15.556 2.51 16.623 2.56C17.687 2.61 18.413 2.777 19.05 3.025C19.71 3.279 20.266 3.623 20.822 4.178C21.3307 4.67773 21.7242 5.28247 21.975 5.95C22.222 6.587 22.39 7.313 22.44 8.378C22.487 9.444 22.5 9.783 22.5 12.5C22.5 15.217 22.49 15.556 22.44 16.622C22.39 17.688 22.222 18.412 21.975 19.05C21.7242 19.7175 21.3307 20.3223 20.822 20.822C20.3223 21.3307 19.7175 21.7242 19.05 21.975C18.413 22.222 17.687 22.39 16.623 22.44C15.556 22.487 15.217 22.5 12.5 22.5C9.783 22.5 9.444 22.49 8.377 22.44C7.313 22.39 6.588 22.222 5.95 21.975C5.28247 21.7242 4.67773 21.3307 4.178 20.822C3.66931 20.3223 3.27582 19.7175 3.025 19.05C2.777 18.413 2.61 17.687 2.56 16.622C2.512 15.556 2.5 15.217 2.5 12.5C2.5 9.783 2.51 9.444 2.56 8.378C2.61 7.312 2.777 6.588 3.025 5.95C3.27582 5.28247 3.66931 4.67773 4.178 4.178C4.67773 3.66931 5.28247 3.27582 5.95 3.025C6.587 2.777 7.312 2.61 8.377 2.56C9.445 2.513 9.784 2.5 12.501 2.5" fill="white"/>
<path d="M12.501 15.5V16.5V15.5ZM12.501 7.5V6.5V7.5ZM17.501 12.5H16.501H17.501ZM12.501 17.5V16.5V17.5ZM8.472 4.558L8.42773 3.55898L8.42486 3.55911L8.472 4.558ZM6.674 4.89L7.01969 5.82835L7.02828 5.82518L7.03681 5.82186L6.674 4.89ZM5.594 5.593L6.2894 6.31162L6.30093 6.30046L6.31211 6.28893L5.594 5.593ZM4.89 6.673L5.82236 7.03453L5.82532 7.02689L5.82816 7.01921L4.89 6.673ZM4.559 8.471L5.55789 8.51805L5.55794 8.51693L4.559 8.471ZM4.558 16.529L3.55898 16.5733L3.55911 16.5762L4.558 16.529ZM4.889 18.326L3.95674 18.6878L3.9576 18.69L4.889 18.326ZM5.591 19.406L4.88389 20.1131L4.88494 20.1142L5.591 19.406ZM6.671 20.109L7.03162 19.1763L7.03114 19.1761L6.671 20.109ZM8.471 20.442L8.51805 19.4431L8.51711 19.4431L8.471 20.442ZM16.529 20.442L16.5733 21.441L16.5763 21.4409L16.529 20.442ZM18.326 20.111L17.9803 19.1727L17.9729 19.1754L17.9655 19.1782L18.326 20.111ZM19.406 19.408L18.6999 18.6998L18.6939 18.7059L18.6879 18.7121L19.406 19.408ZM20.11 18.328L19.1771 17.9677L19.1768 17.9686L20.11 18.328ZM20.442 16.528L19.4431 16.4809L19.4431 16.482L20.442 16.528ZM20.442 8.471L21.441 8.42673L21.4409 8.42374L20.442 8.471ZM20.11 6.673L19.1717 7.01869L19.1745 7.02645L19.1775 7.03415L20.11 6.673ZM19.407 5.593L18.6884 6.2884L18.6995 6.29993L18.7111 6.31111L19.407 5.593ZM18.327 4.889L17.9655 5.82136L17.9731 5.82432L17.9808 5.82716L18.327 4.889ZM16.529 4.558L16.4819 5.55689L16.483 5.55694L16.529 4.558ZM16.623 2.56L16.6699 1.5611L16.6698 1.5611L16.623 2.56ZM19.05 3.025L18.6872 3.95687L18.6908 3.95827L19.05 3.025ZM20.822 4.178L20.1155 4.88577L20.1212 4.89136L20.822 4.178ZM21.975 5.95L21.0388 6.30175L21.0426 6.31153L21.975 5.95ZM22.44 8.378L23.439 8.33395L23.4389 8.3311L22.44 8.378ZM21.975 19.05L21.0424 18.6889L21.0389 18.6983L21.975 19.05ZM20.822 20.822L20.1212 20.1086L20.1149 20.1149L20.1086 20.1212L20.822 20.822ZM19.05 21.975L18.6982 21.0388L18.6885 21.0426L19.05 21.975ZM16.623 22.44L16.667 23.439L16.6699 23.4389L16.623 22.44ZM8.377 22.44L8.33006 23.4389L8.33019 23.4389L8.377 22.44ZM5.95 21.975L6.31105 21.0424L6.30173 21.0389L5.95 21.975ZM4.178 20.822L4.89136 20.1212L4.88513 20.1149L4.8788 20.1086L4.178 20.822ZM3.025 19.05L3.96117 18.6982L3.95687 18.6872L3.025 19.05ZM2.56 16.622L1.56101 16.667L1.5611 16.6689L2.56 16.622ZM3.025 5.95L3.95712 6.31233L3.9611 6.30173L3.025 5.95ZM4.178 4.178L4.8788 4.89136L4.88513 4.88513L4.89136 4.8788L4.178 4.178ZM5.95 3.025L6.30175 3.96117L6.3128 3.95687L5.95 3.025ZM8.377 2.56L8.33303 1.56096L8.3301 1.5611L8.377 2.56ZM12.501 9.5V8.5C11.4401 8.5 10.4227 8.92143 9.67257 9.67157L10.3797 10.3787L11.0868 11.0858C11.4619 10.7107 11.9706 10.5 12.501 10.5V9.5ZM10.3797 10.3787L9.67257 9.67157C8.92243 10.4217 8.501 11.4391 8.501 12.5H9.501H10.501C10.501 11.9696 10.7117 11.4609 11.0868 11.0858L10.3797 10.3787ZM9.501 12.5H8.501C8.501 13.5609 8.92243 14.5783 9.67257 15.3284L10.3797 14.6213L11.0868 13.9142C10.7117 13.5391 10.501 13.0304 10.501 12.5H9.501ZM10.3797 14.6213L9.67257 15.3284C10.4227 16.0786 11.4401 16.5 12.501 16.5V15.5V14.5C11.9706 14.5 11.4619 14.2893 11.0868 13.9142L10.3797 14.6213ZM12.501 15.5V16.5C13.5619 16.5 14.5793 16.0786 15.3294 15.3284L14.6223 14.6213L13.9152 13.9142C13.5401 14.2893 13.0314 14.5 12.501 14.5V15.5ZM14.6223 14.6213L15.3294 15.3284C16.0796 14.5783 16.501 13.5609 16.501 12.5H15.501H14.501C14.501 13.0304 14.2903 13.5391 13.9152 13.9142L14.6223 14.6213ZM15.501 12.5H16.501C16.501 11.4391 16.0796 10.4217 15.3294 9.67157L14.6223 10.3787L13.9152 11.0858C14.2903 11.4609 14.501 11.9696 14.501 12.5H15.501ZM14.6223 10.3787L15.3294 9.67157C14.5793 8.92143 13.5619 8.5 12.501 8.5V9.5V10.5C13.0314 10.5 13.5401 10.7107 13.9152 11.0858L14.6223 10.3787ZM12.501 7.5V8.5C13.5619 8.5 14.5793 8.92143 15.3294 9.67157L16.0365 8.96447L16.7436 8.25736C15.6184 7.13214 14.0923 6.5 12.501 6.5V7.5ZM16.0365 8.96447L15.3294 9.67157C16.0796 10.4217 16.501 11.4391 16.501 12.5H17.501H18.501C18.501 10.9087 17.8689 9.38258 16.7436 8.25736L16.0365 8.96447ZM17.501 12.5H16.501C16.501 13.5609 16.0796 14.5783 15.3294 15.3284L16.0365 16.0355L16.7436 16.7426C17.8689 15.6174 18.501 14.0913 18.501 12.5H17.501ZM16.0365 16.0355L15.3294 15.3284C14.5793 16.0786 13.5619 16.5 12.501 16.5V17.5V18.5C14.0923 18.5 15.6184 17.8679 16.7436 16.7426L16.0365 16.0355ZM12.501 17.5V16.5C11.4401 16.5 10.4227 16.0786 9.67257 15.3284L8.96547 16.0355L8.25836 16.7426C9.38358 17.8679 10.9097 18.5 12.501 18.5V17.5ZM8.96547 16.0355L9.67257 15.3284C8.92243 14.5783 8.501 13.5609 8.501 12.5H7.501H6.501C6.501 14.0913 7.13314 15.6174 8.25836 16.7426L8.96547 16.0355ZM7.501 12.5H8.501C8.501 11.4391 8.92243 10.4217 9.67257 9.67157L8.96547 8.96447L8.25836 8.25736C7.13314 9.38258 6.501 10.9087 6.501 12.5H7.501ZM8.96547 8.96447L9.67257 9.67157C10.4227 8.92143 11.4401 8.5 12.501 8.5V7.5V6.5C10.9097 6.5 9.38358 7.13214 8.25836 8.25736L8.96547 8.96447ZM19.001 7.25H18.001C18.001 7.31631 17.9747 7.37989 17.9278 7.42678L18.6349 8.13388L19.342 8.84099C19.7639 8.41903 20.001 7.84674 20.001 7.25H19.001ZM18.6349 8.13388L17.9278 7.42678C17.8809 7.47366 17.8173 7.5 17.751 7.5V8.5V9.5C18.3477 9.5 18.92 9.26295 19.342 8.84099L18.6349 8.13388ZM17.751 8.5V7.5C17.6847 7.5 17.6211 7.47366 17.5742 7.42678L16.8671 8.13388L16.16 8.84099C16.582 9.26295 17.1543 9.5 17.751 9.5V8.5ZM16.8671 8.13388L17.5742 7.42678C17.5273 7.37989 17.501 7.3163 17.501 7.25H16.501H15.501C15.501 7.84674 15.7381 8.41903 16.16 8.84099L16.8671 8.13388ZM16.501 7.25H17.501C17.501 7.1837 17.5273 7.12011 17.5742 7.07322L16.8671 6.36612L16.16 5.65901C15.7381 6.08097 15.501 6.65326 15.501 7.25H16.501ZM16.8671 6.36612L17.5742 7.07322C17.6211 7.02634 17.6847 7 17.751 7V6V5C17.1543 5 16.582 5.23705 16.16 5.65901L16.8671 6.36612ZM17.751 6V7C17.8173 7 17.8809 7.02634 17.9278 7.07322L18.6349 6.36612L19.342 5.65901C18.92 5.23705 18.3477 5 17.751 5V6ZM18.6349 6.36612L17.9278 7.07322C17.9747 7.12011 18.001 7.18369 18.001 7.25H19.001H20.001C20.001 6.65326 19.7639 6.08097 19.342 5.65901L18.6349 6.36612ZM12.501 4.5V3.5C10.0239 3.5 9.60176 3.50696 8.42773 3.55898L8.472 4.558L8.51627 5.55702C9.64424 5.50704 10.0301 5.5 12.501 5.5V4.5ZM8.472 4.558L8.42486 3.55911C7.56647 3.59962 6.92739 3.71822 6.31118 3.95814L6.674 4.89L7.03681 5.82186C7.39661 5.68178 7.80953 5.59038 8.51914 5.55689L8.472 4.558ZM6.674 4.89L6.32831 3.95165C5.77939 4.15387 5.283 4.47699 4.87589 4.89707L5.594 5.593L6.31211 6.28893C6.51044 6.08428 6.75227 5.92687 7.01969 5.82835L6.674 4.89ZM5.594 5.593L4.8986 4.87438C4.47804 5.28135 4.15446 5.77775 3.95184 6.32679L4.89 6.673L5.82816 7.01921C5.92687 6.75173 6.08451 6.50989 6.2894 6.31162L5.594 5.593ZM4.89 6.673L3.95764 6.31147C3.71832 6.92865 3.59954 7.56626 3.56006 8.42507L4.559 8.471L5.55794 8.51693C5.59046 7.80974 5.68168 7.39735 5.82236 7.03453L4.89 6.673ZM4.559 8.471L3.56011 8.42395C3.50693 9.55297 3.5 9.95885 3.5 12.5H4.5H5.5C5.5 9.96315 5.50707 9.59703 5.55789 8.51805L4.559 8.471ZM4.5 12.5H3.5C3.5 14.9781 3.50696 15.3992 3.55898 16.5733L4.558 16.529L5.55702 16.4847C5.50704 15.3568 5.5 14.9719 5.5 12.5H4.5ZM4.558 16.529L3.55911 16.5762C3.59962 17.4334 3.71815 18.073 3.95674 18.6878L4.889 18.326L5.82126 17.9642C5.68185 17.605 5.59038 17.1906 5.55689 16.4818L4.558 16.529ZM4.889 18.326L3.9576 18.69C4.17569 19.2481 4.4501 19.6793 4.88389 20.1131L5.591 19.406L6.29811 18.6989C6.0679 18.4687 5.94231 18.2739 5.8204 17.962L4.889 18.326ZM5.591 19.406L4.88494 20.1142C5.32088 20.5488 5.75185 20.8261 6.31086 21.0419L6.671 20.109L7.03114 19.1761C6.73015 19.0599 6.53512 18.9352 6.29706 18.6978L5.591 19.406ZM6.671 20.109L6.31038 21.0417C6.9297 21.2812 7.56731 21.4014 8.4249 21.4409L8.471 20.442L8.51711 19.4431C7.81469 19.4106 7.4003 19.3188 7.03162 19.1763L6.671 20.109ZM8.471 20.442L8.42395 21.4409C9.55335 21.4941 9.95968 21.5 12.5 21.5V20.5V19.5C9.96232 19.5 9.59665 19.4939 8.51805 19.4431L8.471 20.442ZM12.5 20.5V21.5C14.9781 21.5 15.3992 21.493 16.5733 21.441L16.529 20.442L16.4847 19.443C15.3568 19.493 14.9719 19.5 12.5 19.5V20.5ZM16.529 20.442L16.5763 21.4409C17.4331 21.4003 18.0709 21.2817 18.6865 21.0438L18.326 20.111L17.9655 19.1782C17.6031 19.3183 17.1889 19.4097 16.4817 19.4431L16.529 20.442ZM18.326 20.111L18.6717 21.0493C19.2206 20.8471 19.717 20.524 20.1241 20.1039L19.406 19.408L18.6879 18.7121C18.4896 18.9167 18.2477 19.0741 17.9803 19.1727L18.326 20.111ZM19.406 19.408L20.1121 20.1162C20.5495 19.6801 20.8273 19.2479 21.0432 18.6874L20.11 18.328L19.1768 17.9686C19.0607 18.2701 18.9365 18.4639 18.6999 18.6998L19.406 19.408ZM20.11 18.328L21.0429 18.6882C21.2813 18.0708 21.4014 17.4332 21.4409 16.574L20.442 16.528L19.4431 16.482C19.4106 17.1868 19.3187 17.6012 19.1771 17.9677L20.11 18.328ZM20.442 16.528L21.4409 16.5751C21.4941 15.4467 21.5 15.0393 21.5 12.5H20.5H19.5C19.5 15.0367 19.4939 15.4033 19.4431 16.4809L20.442 16.528ZM20.5 12.5H21.5C21.5 10.0229 21.493 9.60076 21.441 8.42673L20.442 8.471L19.443 8.51527C19.493 9.64324 19.5 10.0291 19.5 12.5H20.5ZM20.442 8.471L21.4409 8.42374C21.4003 7.56632 21.2805 6.92635 21.0425 6.31185L20.11 6.673L19.1775 7.03415C19.3175 7.39565 19.4097 7.81168 19.4431 8.51826L20.442 8.471ZM20.11 6.673L21.0483 6.32731C20.8461 5.77839 20.523 5.282 20.1029 4.87489L19.407 5.593L18.7111 6.31111C18.9157 6.50944 19.0731 6.75127 19.1717 7.01869L20.11 6.673ZM19.407 5.593L20.1256 4.8976C19.7187 4.47704 19.2223 4.15346 18.6732 3.95084L18.327 4.889L17.9808 5.82716C18.2483 5.92587 18.4901 6.08351 18.6884 6.2884L19.407 5.593ZM18.327 4.889L18.6885 3.95664C18.0713 3.71729 17.4326 3.59854 16.575 3.55906L16.529 4.558L16.483 5.55694C17.1894 5.58946 17.6027 5.68071 17.9655 5.82136L18.327 4.889ZM16.529 4.558L16.5761 3.55911C15.4477 3.50591 15.0413 3.5 12.5 3.5V4.5V5.5C15.0387 5.5 15.4043 5.50609 16.4819 5.55689L16.529 4.558ZM12.5 2.5V3.5C15.2134 3.5 15.5334 3.51004 16.5762 3.5589L16.623 2.56L16.6698 1.5611C15.5786 1.50996 15.2206 1.5 12.5 1.5V2.5ZM16.623 2.56L16.5761 3.5589C17.5476 3.60455 18.1649 3.75352 18.6872 3.95687L19.05 3.025L19.4128 2.09313C18.6611 1.80048 17.8264 1.61545 16.6699 1.5611L16.623 2.56ZM19.05 3.025L18.6908 3.95827C19.2263 4.16436 19.6626 4.43359 20.1155 4.88574L20.822 4.178L21.5285 3.47026C20.8694 2.81241 20.1937 2.39364 19.4092 2.09173L19.05 3.025ZM20.822 4.178L20.1212 4.89136C20.5261 5.28911 20.8393 5.77043 21.0389 6.30173L21.975 5.95L22.9111 5.59827C22.6091 4.79451 22.1353 4.06636 21.5228 3.46464L20.822 4.178ZM21.975 5.95L21.0426 6.31153C21.2457 6.83531 21.3955 7.45328 21.4411 8.4249L22.44 8.378L23.4389 8.3311C23.3845 7.17272 23.1983 6.33869 22.9074 5.58847L21.975 5.95ZM22.44 8.378L21.441 8.42205C21.487 9.46679 21.5 9.78916 21.5 12.5H22.5H23.5C23.5 9.77684 23.487 9.42121 23.439 8.33395L22.44 8.378ZM22.5 12.5H21.5C21.5 15.2134 21.49 15.5334 21.4411 16.5751L22.44 16.622L23.4389 16.6689C23.49 15.5786 23.5 15.2206 23.5 12.5H22.5ZM22.44 16.622L21.4411 16.5751C21.3955 17.5473 21.2459 18.1636 21.0424 18.689L21.975 19.05L22.9076 19.411C23.1981 18.6604 23.3845 17.8287 23.4389 16.6689L22.44 16.622ZM21.975 19.05L21.0389 18.6983C20.8393 19.2296 20.5261 19.7109 20.1212 20.1086L20.822 20.822L21.5228 21.5354C22.1353 20.9336 22.6091 20.2055 22.9111 19.4017L21.975 19.05ZM20.822 20.822L20.1086 20.1212C19.7109 20.5261 19.2296 20.8393 18.6983 21.0389L19.05 21.975L19.4017 22.9111C20.2055 22.6091 20.9336 22.1353 21.5354 21.5228L20.822 20.822ZM19.05 21.975L18.6885 21.0426C18.1646 21.2458 17.5466 21.3955 16.5761 21.4411L16.623 22.44L16.6699 23.4389C17.8274 23.3845 18.6614 23.1982 19.4115 22.9074L19.05 21.975ZM16.623 22.44L16.579 21.441C15.5332 21.487 15.2108 21.5 12.5 21.5V22.5V23.5C15.2232 23.5 15.5788 23.487 16.667 23.439L16.623 22.44ZM12.5 22.5V21.5C9.7866 21.5 9.46662 21.49 8.42381 21.4411L8.377 22.44L8.33019 23.4389C9.42138 23.49 9.7794 23.5 12.5 23.5V22.5ZM8.377 22.44L8.42394 21.4411C7.45365 21.3955 6.83641 21.2458 6.31103 21.0424L5.95 21.975L5.58896 22.9076C6.33959 23.1982 7.17235 23.3845 8.33006 23.4389L8.377 22.44ZM5.95 21.975L6.30173 21.0389C5.77043 20.8393 5.28911 20.5261 4.89136 20.1212L4.178 20.822L3.46464 21.5228C4.06636 22.1353 4.79451 22.6091 5.59827 22.9111L5.95 21.975ZM4.178 20.822L4.8788 20.1086C4.47392 19.7109 4.16073 19.2296 3.9611 18.6983L3.025 19.05L2.0889 19.4017C2.3909 20.2055 2.8647 20.9336 3.4772 21.5354L4.178 20.822ZM3.025 19.05L3.95687 18.6872C3.75354 18.1649 3.60456 17.5477 3.5589 16.5751L2.56 16.622L1.5611 16.6689C1.61544 17.8263 1.80046 18.6611 2.09313 19.4128L3.025 19.05ZM2.56 16.622L3.55899 16.577C3.51199 15.5333 3.5 15.2117 3.5 12.5H2.5H1.5C1.5 15.2223 1.51201 15.5787 1.56101 16.667L2.56 16.622ZM2.5 12.5H3.5C3.5 9.78659 3.51004 9.46663 3.5589 8.42485L2.56 8.378L1.5611 8.33115C1.50996 9.42137 1.5 9.77941 1.5 12.5H2.5ZM2.56 8.378L3.5589 8.42485C3.60455 7.4517 3.75343 6.83617 3.95706 6.3123L3.025 5.95L2.09294 5.58769C1.80057 6.33983 1.61545 7.1723 1.5611 8.33115L2.56 8.378ZM3.025 5.95L3.9611 6.30173C4.16073 5.77043 4.47392 5.28911 4.8788 4.89136L4.178 4.178L3.4772 3.46464C2.8647 4.06636 2.3909 4.79451 2.0889 5.59827L3.025 5.95ZM4.178 4.178L4.89136 4.8788C5.28911 4.47392 5.77043 4.16073 6.30173 3.9611L5.95 3.025L5.59827 2.0889C4.79451 2.3909 4.06636 2.8647 3.46464 3.4772L4.178 4.178ZM5.95 3.025L6.3128 3.95687C6.8352 3.75348 7.45149 3.60455 8.4239 3.5589L8.377 2.56L8.3301 1.5611C7.17251 1.61545 6.3388 1.80052 5.5872 2.09313L5.95 3.025ZM8.377 2.56L8.42096 3.55903C9.46777 3.51297 9.79018 3.5 12.501 3.5V2.5V1.5C9.77782 1.5 9.42223 1.51303 8.33303 1.56097L8.377 2.56Z" fill="white" mask="url(#path-1-inside-1_77_286)"/>
</svg>
