<svg width="18" height="18" viewBox="0 0 18 18" fill="none" xmlns="http://www.w3.org/2000/svg">
<path d="M8.56055 1.32336C8.64745 1.32336 8.7426 1.34576 8.85059 1.40735C8.92244 1.44837 8.98034 1.5097 9.02441 1.61536L9.02539 1.61731L10.9004 6.0675L11.0176 6.34485L11.3174 6.37122L16.1455 6.79407C16.3103 6.81835 16.392 6.86489 16.4316 6.89954C16.4953 6.95521 16.55 7.03236 16.5908 7.14465C16.625 7.2387 16.6319 7.33037 16.6104 7.43079C16.5944 7.50488 16.5529 7.58579 16.4531 7.67493L12.7842 10.8448L12.5557 11.0421L12.624 11.337L13.7236 16.0616C13.7519 16.1846 13.7369 16.2626 13.709 16.3214C13.6585 16.4276 13.5913 16.5114 13.5049 16.5782C13.4355 16.6318 13.3531 16.6653 13.2432 16.6749C13.1626 16.6819 13.0791 16.6657 12.9805 16.6027L12.7109 17.0236L12.9805 16.6017L12.9688 16.5948L8.81934 14.0948L8.56055 13.9396L8.30273 14.0948L4.15332 16.5948H4.15234L4.14258 16.6017C4.04333 16.6648 3.95886 16.6818 3.87695 16.6749C3.76814 16.6658 3.68711 16.6319 3.61816 16.5782C3.5308 16.5103 3.46257 16.4271 3.41211 16.3214C3.38465 16.2639 3.36874 16.1845 3.39746 16.0597L4.49805 11.337L4.56641 11.0421L4.33789 10.8448L0.663086 7.67004C0.568347 7.58267 0.528442 7.50295 0.512695 7.42981C0.49096 7.3286 0.497613 7.23694 0.53125 7.14368C0.571171 7.03319 0.625735 6.95618 0.69043 6.89954C0.730802 6.86422 0.812066 6.81769 0.974609 6.79407L5.80469 6.37122L6.10449 6.34485L6.22168 6.0675L8.09668 1.61731L8.09766 1.61536C8.14176 1.50968 8.19958 1.44836 8.27148 1.40735C8.37931 1.34586 8.47376 1.32342 8.56055 1.32336Z" fill="#EA7727" stroke="black"/>
</svg>
