<svg width="18" height="18" viewBox="0 0 18 18" fill="none" xmlns="http://www.w3.org/2000/svg">
<path d="M9.05103 1.32336C9.13793 1.32336 9.23308 1.34576 9.34106 1.40735C9.41292 1.44837 9.47082 1.5097 9.51489 1.61536L9.51587 1.61731L11.3909 6.0675L11.5081 6.34485L11.8079 6.37122L16.636 6.79407C16.8008 6.81835 16.8825 6.86489 16.9221 6.89954C16.9857 6.95521 17.0405 7.03236 17.0813 7.14465C17.1154 7.2387 17.1224 7.33037 17.1008 7.43079C17.0849 7.50488 17.0434 7.58579 16.9436 7.67493L13.2747 10.8448L13.0461 11.0421L13.1145 11.337L14.2141 16.0616C14.2424 16.1846 14.2274 16.2626 14.1995 16.3214C14.149 16.4276 14.0818 16.5114 13.9954 16.5782C13.926 16.6318 13.8435 16.6653 13.7336 16.6749C13.653 16.6819 13.5696 16.6657 13.4709 16.6027L13.2014 17.0236L13.4709 16.6017L13.4592 16.5948L9.30981 14.0948L9.05103 13.9396L8.79321 14.0948L4.6438 16.5948H4.64282L4.63306 16.6017C4.53381 16.6648 4.44934 16.6818 4.36743 16.6749C4.25862 16.6658 4.17759 16.6319 4.10864 16.5782C4.02128 16.5103 3.95305 16.4271 3.90259 16.3214C3.87513 16.2639 3.85922 16.1845 3.88794 16.0597L4.98853 11.337L5.05688 11.0421L4.82837 10.8448L1.15356 7.67004C1.05883 7.58267 1.01892 7.50295 1.00317 7.42981C0.981439 7.3286 0.988091 7.23694 1.02173 7.14368C1.06165 7.03319 1.11621 6.95618 1.18091 6.89954C1.22128 6.86422 1.30254 6.81769 1.46509 6.79407L6.29517 6.37122L6.59497 6.34485L6.71216 6.0675L8.58716 1.61731L8.58813 1.61536C8.63224 1.50968 8.69006 1.44836 8.76196 1.40735C8.86979 1.34586 8.96423 1.32342 9.05103 1.32336Z" stroke="black"/>
<path d="M9.05103 1.32336C9.13793 1.32336 9.23308 1.34576 9.34106 1.40735C9.41292 1.44837 9.47082 1.5097 9.51489 1.61536L9.51587 1.61731L11.3909 6.0675L11.5081 6.34485L11.8079 6.37122L16.636 6.79407C16.8008 6.81835 16.8825 6.86489 16.9221 6.89954C16.9857 6.95521 17.0405 7.03236 17.0813 7.14465C17.1154 7.2387 17.1224 7.33037 17.1008 7.43079C17.0849 7.50488 17.0434 7.58579 16.9436 7.67493L13.2747 10.8448L13.0461 11.0421L13.1145 11.337L14.2141 16.0616C14.2424 16.1846 14.2274 16.2626 14.1995 16.3214C14.149 16.4276 14.0818 16.5114 13.9954 16.5782C13.926 16.6318 13.8435 16.6653 13.7336 16.6749C13.653 16.6819 13.5696 16.6657 13.4709 16.6027L13.2014 17.0236L13.4709 16.6017L13.4592 16.5948L9.30981 14.0948L9.05103 13.9396L8.79321 14.0948L4.6438 16.5948H4.64282L4.63306 16.6017C4.53381 16.6648 4.44934 16.6818 4.36743 16.6749C4.25862 16.6658 4.17759 16.6319 4.10864 16.5782C4.02128 16.5103 3.95305 16.4271 3.90259 16.3214C3.87513 16.2639 3.85922 16.1845 3.88794 16.0597L4.98853 11.337L5.05688 11.0421L4.82837 10.8448L1.15356 7.67004C1.05883 7.58267 1.01892 7.50295 1.00317 7.42981C0.981439 7.3286 0.988091 7.23694 1.02173 7.14368C1.06165 7.03319 1.11621 6.95618 1.18091 6.89954C1.22128 6.86422 1.30254 6.81769 1.46509 6.79407L6.29517 6.37122L6.59497 6.34485L6.71216 6.0675L8.58716 1.61731L8.58813 1.61536C8.63224 1.50968 8.69006 1.44836 8.76196 1.40735C8.86979 1.34586 8.96423 1.32342 9.05103 1.32336Z" stroke="black" stroke-opacity="0.2"/>
</svg>
